<svg width="16" height="16" viewBox="0 0 16 16" fill="none" xmlns="http://www.w3.org/2000/svg">
  <path d="M8 0C3.58 0 0 3.58 0 8C0 11.42 2.29 14.16 5.47 15.09C5.85 15.16 6 14.93 6 14.73V13.41C3.86 13.85 3.39 12.58 3.39 12.58C3.06 11.81 2.57 11.62 2.57 11.62C1.84 11.14 2.62 11.14 2.62 11.14C3.41 11.2 3.85 11.94 3.85 11.94C4.53 13.04 5.66 12.67 6.12 12.47C6.2 12 6.42 11.66 6.67 11.46C4.85 11.25 2.92 10.58 2.92 7.62C2.92 6.77 3.22 6.12 3.68 5.63C3.6 5.43 3.3 4.62 3.76 3.47C3.76 3.47 4.45 3.25 6 4.26C6.6 4.08 7.24 4 7.88 4C8.52 4 9.16 4.08 9.76 4.26C11.31 3.25 12 3.47 12 3.47C12.46 4.62 12.16 5.43 12.08 5.63C12.54 6.12 12.84 6.77 12.84 7.62C12.84 10.59 10.9 11.25 9.08 11.46C9.4 11.7 9.68 12.18 9.68 12.94V14.73C9.68 14.93 9.84 15.16 10.22 15.09C13.41 14.16 16 11.42 16 8C16 3.58 12.42 0 8 0Z" fill="white"/>
</svg>
